<svg width="514" height="427" viewBox="0 0 514 427" fill="none" xmlns="http://www.w3.org/2000/svg">
<path d="M114.141 265.716C170.864 293.447 141.714 328.479 120.049 342.529C13.2206 403.979 -4.03274 368.133 0.6942 342.529C14.875 305.37 57.4174 237.984 114.141 265.716Z" fill="#F37C7C"/>
<path d="M393.136 86.9548C443.796 77.1917 465.246 119.311 469.638 141.591C483.755 245.559 441.936 227.892 419.262 206.063C389.445 170.428 342.476 96.7178 393.136 86.9548Z" fill="#F3D27C"/>
<path d="M104.551 171.402C141.317 169.957 284.569 149.343 301.113 113.103C317.658 76.8629 262.51 90.6502 221.149 85.1352C179.789 79.6203 190.03 51.6527 197.908 20.9276C205.787 -9.79744 123.38 -17.203 66.3421 72.9239C9.30372 163.051 68.049 176.129 104.551 171.402Z" fill="#8D7CF3"/>
<circle cx="249.74" cy="233.983" r="193.017" fill="#F6F4FC" fill-opacity="0.8"/>
<rect x="151.262" y="256.83" width="206.41" height="109.507" rx="2" fill="#F3D27C" fill-opacity="0.65"/>
<rect x="163.867" y="282.595" width="206.41" height="109.507" rx="2" transform="rotate(-14.2977 163.867 282.595)" fill="white"/>
<path d="M352.836 212.914L356.644 213.921L335.189 295.035C334.911 296.086 333.833 296.713 332.782 296.435C331.73 296.157 331.103 295.079 331.381 294.027L352.836 212.914Z" fill="#8D7CF3"/>
<rect x="352.836" y="212.914" width="3.93911" height="3.93911" transform="rotate(14.8156 352.836 212.914)" fill="#F37C7C"/>
<rect x="351.829" y="216.722" width="3.93911" height="3.93911" transform="rotate(14.8156 351.829 216.722)" fill="#F9F9F9"/>
<path d="M333.377 297.751C332.834 298.421 331.754 298.136 331.613 297.284L331.278 295.255C331.16 294.539 331.82 293.94 332.521 294.125L334.15 294.556C334.851 294.742 335.128 295.588 334.672 296.152L333.377 297.751Z" fill="#8D7CF3"/>
<circle cx="305.675" cy="185.138" r="22.059" fill="#D9CEFB"/>
<rect x="325.371" y="182.775" width="14.1808" height="4.72694" rx="2.36347" fill="#D9CEFB"/>
<circle cx="304.1" cy="181.987" r="22.059" fill="white"/>
<rect x="323.795" y="179.624" width="14.1808" height="4.72694" rx="2.36347" fill="white"/>
<circle cx="304.1" cy="181.987" r="18.9077" fill="#192457"/>
<path d="M293.858 176.914C294.777 175.207 297.561 172.187 301.342 173.762C306.069 175.732 308.039 177.654 313.947 174.503" stroke="#2A3774"/>
<path d="M293.858 183.216C294.777 181.509 297.561 178.489 301.342 180.065C306.069 182.034 308.039 183.957 313.947 180.805" stroke="#2A3774"/>
<path d="M293.858 189.519C294.777 187.812 297.561 184.792 301.342 186.367C306.069 188.337 308.039 190.259 313.947 187.108" stroke="#2A3774"/>
<path d="M280.256 318.897C279.819 319.014 279.417 318.956 279.05 318.723C278.71 318.483 278.467 318.092 278.322 317.551C277.943 316.135 277.879 314.868 278.132 313.751C278.385 312.634 278.846 311.365 279.514 309.944C280.038 308.809 280.398 307.885 280.593 307.17C280.788 306.455 280.782 305.711 280.575 304.939C280.347 304.089 279.845 303.505 279.07 303.188C278.314 302.839 277.395 302.809 276.313 303.099C275.386 303.347 274.553 303.791 273.813 304.431C273.067 305.045 272.227 305.878 271.293 306.929C270.746 307.462 270.266 307.783 269.854 307.894C269.416 308.011 268.978 307.922 268.54 307.625C268.12 307.296 267.838 306.861 267.693 306.32C267.493 305.573 267.64 304.884 268.134 304.255C268.967 303.038 270.049 301.975 271.379 301.067C272.702 300.132 274.111 299.465 275.605 299.065C277.176 298.644 278.64 298.541 279.995 298.758C281.377 298.968 282.53 299.459 283.455 300.233C284.406 300.999 285.047 302.001 285.378 303.237C285.737 304.577 285.729 305.835 285.354 307.012C284.973 308.164 284.329 309.523 283.424 311.091C282.658 312.456 282.104 313.584 281.764 314.476C281.442 315.335 281.341 316.246 281.46 317.207C281.493 317.64 281.399 318.011 281.178 318.318C280.976 318.593 280.669 318.786 280.256 318.897ZM282.508 326.99C281.684 327.21 280.928 327.123 280.243 326.727C279.55 326.305 279.093 325.682 278.872 324.858C278.651 324.034 278.739 323.279 279.135 322.593C279.524 321.881 280.131 321.415 280.955 321.194C281.779 320.973 282.538 321.074 283.23 321.495C283.916 321.891 284.37 322.501 284.59 323.326C284.811 324.15 284.714 324.921 284.299 325.64C283.904 326.326 283.306 326.776 282.508 326.99Z" fill="#F37C7C"/>
<rect x="110.97" y="154.472" width="122.907" height="77.0253" rx="4" transform="rotate(-15.4074 110.97 154.472)" fill="#EAEAEA"/>
<g clip-path="url(#clip0)">
<path d="M181.214 169.634C181.598 168.901 181.743 167.991 181.42 167.212C180.644 167.456 179.813 168.15 179.411 168.888C179.049 169.543 178.834 170.488 179.17 171.247C180.061 171.065 180.83 170.365 181.214 169.634ZM184.419 174.743C183.904 172.94 185.113 171.672 185.165 171.613C184.013 170.609 182.698 170.791 182.242 170.896C181.131 171.08 180.317 172.13 179.768 172.281C179.222 172.432 178.202 172.025 177.311 172.289C176.139 172.633 175.244 173.618 174.938 174.871C174.318 177.393 176.12 180.38 177.8 181.825C178.621 182.532 179.583 183.315 180.484 183.028C181.354 182.751 181.534 182.11 182.595 181.818C183.656 181.525 184.114 182.028 185.038 181.755C185.977 181.477 186.336 180.445 186.674 179.415C187.065 178.224 187.072 177.174 187.074 177.12C187.051 177.114 185.034 176.9 184.419 174.743Z" fill="#CCD0D2"/>
</g>
<defs>
<clipPath id="clip0">
<rect width="15" height="15" fill="white" transform="translate(171.265 170.011) rotate(-15.4074)"/>
</clipPath>
</defs>
</svg>
