<svg width="16" height="16" viewBox="0 0 16 16" fill="none" xmlns="http://www.w3.org/2000/svg">
<circle cx="8" cy="8" r="7.5" stroke="#192457"/>
<path d="M8.18795 9.552C8.06795 9.552 7.96395 9.512 7.87595 9.432C7.79595 9.352 7.74795 9.236 7.73195 9.084L7.28795 4.416L7.27595 4.296C7.27595 4.048 7.35995 3.852 7.52795 3.708C7.70395 3.556 7.92395 3.48 8.18795 3.48C8.46795 3.48 8.69595 3.568 8.87195 3.744C9.04795 3.912 9.11995 4.14 9.08795 4.428L8.64395 9.084C8.62795 9.236 8.57595 9.352 8.48795 9.432C8.40795 9.512 8.30795 9.552 8.18795 9.552ZM8.18795 12.072C7.93195 12.072 7.71995 11.988 7.55195 11.82C7.38395 11.644 7.29995 11.428 7.29995 11.172C7.29995 10.916 7.38395 10.704 7.55195 10.536C7.71995 10.36 7.93195 10.272 8.18795 10.272C8.44395 10.272 8.65595 10.36 8.82395 10.536C8.99195 10.704 9.07595 10.916 9.07595 11.172C9.07595 11.428 8.99195 11.644 8.82395 11.82C8.65595 11.988 8.44395 12.072 8.18795 12.072Z" fill="#192457"/>
</svg>
