<svg width="744" height="418" viewBox="0 0 744 418" fill="none" xmlns="http://www.w3.org/2000/svg">
<g filter="url(#filter0_d)">
<rect y="5" width="541" height="339" rx="4" fill="white"/>
</g>
<circle cx="45" cy="34" r="5" fill="#F37C7C"/>
<circle cx="65" cy="34" r="5" fill="#F3D27C"/>
<circle cx="85" cy="34" r="5" fill="#7EF37C"/>
<g filter="url(#filter1_d)">
<rect x="177" y="58" width="541" height="339" rx="4" fill="white"/>
</g>
<circle cx="222" cy="87" r="5" fill="#F37C7C"/>
<circle cx="242" cy="87" r="5" fill="#F3D27C"/>
<circle cx="262" cy="87" r="5" fill="#7EF37C"/>
<rect x="247" y="141" width="200" height="100" rx="2" fill="#F6F4FC"/>
<rect x="306" y="205" width="82" height="2" fill="#F3D27C"/>
<path d="M311.64 196.08C311.373 196.101 311.171 196.064 311.032 195.968C310.893 195.872 310.824 195.728 310.824 195.536C310.824 195.184 311.021 195.003 311.416 194.992L311.896 194.96C312.44 194.928 312.845 194.763 313.112 194.464C313.379 194.155 313.512 193.664 313.512 192.992V185.312C313.512 185.109 313.576 184.949 313.704 184.832C313.832 184.704 313.987 184.64 314.168 184.64C314.371 184.64 314.531 184.704 314.648 184.832C314.765 184.949 314.824 185.109 314.824 185.312V193.008C314.824 193.989 314.6 194.731 314.152 195.232C313.704 195.723 313.027 195.995 312.12 196.048L311.64 196.08ZM320.603 188.016C322.555 188.016 323.531 189.04 323.531 191.088V195.44C323.531 195.632 323.472 195.787 323.355 195.904C323.248 196.021 323.099 196.08 322.907 196.08C322.715 196.08 322.56 196.021 322.443 195.904C322.325 195.787 322.267 195.632 322.267 195.44V194.672C322.064 195.131 321.755 195.488 321.339 195.744C320.923 195.989 320.443 196.112 319.899 196.112C319.397 196.112 318.933 196.011 318.507 195.808C318.091 195.605 317.76 195.323 317.515 194.96C317.269 194.597 317.147 194.197 317.147 193.76C317.147 193.173 317.296 192.72 317.595 192.4C317.893 192.069 318.384 191.835 319.067 191.696C319.749 191.547 320.699 191.472 321.915 191.472H322.267V190.944C322.267 190.304 322.133 189.835 321.867 189.536C321.611 189.237 321.189 189.088 320.603 189.088C319.877 189.088 319.141 189.285 318.395 189.68C318.107 189.861 317.904 189.952 317.787 189.952C317.659 189.952 317.552 189.904 317.467 189.808C317.381 189.712 317.339 189.589 317.339 189.44C317.339 189.291 317.381 189.163 317.467 189.056C317.563 188.939 317.712 188.821 317.915 188.704C318.288 188.491 318.709 188.325 319.179 188.208C319.659 188.08 320.133 188.016 320.603 188.016ZM320.075 195.088C320.715 195.088 321.237 194.875 321.643 194.448C322.059 194.011 322.267 193.451 322.267 192.768V192.304H321.979C321.04 192.304 320.325 192.347 319.835 192.432C319.344 192.507 318.992 192.64 318.779 192.832C318.576 193.013 318.475 193.285 318.475 193.648C318.475 194.064 318.624 194.411 318.923 194.688C319.232 194.955 319.616 195.088 320.075 195.088ZM331.519 188.448C331.636 188.192 331.823 188.064 332.079 188.064C332.239 188.064 332.383 188.117 332.511 188.224C332.639 188.331 332.703 188.464 332.703 188.624C332.703 188.72 332.682 188.805 332.639 188.88L329.519 195.6C329.455 195.739 329.359 195.851 329.231 195.936C329.103 196.011 328.964 196.048 328.815 196.048C328.676 196.048 328.543 196.011 328.415 195.936C328.287 195.851 328.186 195.739 328.111 195.6L325.007 188.88C324.964 188.805 324.943 188.725 324.943 188.64C324.943 188.48 325.012 188.341 325.151 188.224C325.3 188.107 325.46 188.048 325.631 188.048C325.738 188.048 325.839 188.08 325.935 188.144C326.042 188.208 326.122 188.299 326.175 188.416L328.847 194.416L331.519 188.448ZM337.165 188.016C339.117 188.016 340.093 189.04 340.093 191.088V195.44C340.093 195.632 340.035 195.787 339.917 195.904C339.811 196.021 339.661 196.08 339.469 196.08C339.277 196.08 339.123 196.021 339.005 195.904C338.888 195.787 338.829 195.632 338.829 195.44V194.672C338.627 195.131 338.317 195.488 337.901 195.744C337.485 195.989 337.005 196.112 336.461 196.112C335.96 196.112 335.496 196.011 335.069 195.808C334.653 195.605 334.323 195.323 334.077 194.96C333.832 194.597 333.709 194.197 333.709 193.76C333.709 193.173 333.859 192.72 334.157 192.4C334.456 192.069 334.947 191.835 335.629 191.696C336.312 191.547 337.261 191.472 338.477 191.472H338.829V190.944C338.829 190.304 338.696 189.835 338.429 189.536C338.173 189.237 337.752 189.088 337.165 189.088C336.44 189.088 335.704 189.285 334.957 189.68C334.669 189.861 334.467 189.952 334.349 189.952C334.221 189.952 334.115 189.904 334.029 189.808C333.944 189.712 333.901 189.589 333.901 189.44C333.901 189.291 333.944 189.163 334.029 189.056C334.125 188.939 334.275 188.821 334.477 188.704C334.851 188.491 335.272 188.325 335.741 188.208C336.221 188.08 336.696 188.016 337.165 188.016ZM336.637 195.088C337.277 195.088 337.8 194.875 338.205 194.448C338.621 194.011 338.829 193.451 338.829 192.768V192.304H338.541C337.603 192.304 336.888 192.347 336.397 192.432C335.907 192.507 335.555 192.64 335.341 192.832C335.139 193.013 335.037 193.285 335.037 193.648C335.037 194.064 335.187 194.411 335.485 194.688C335.795 194.955 336.179 195.088 336.637 195.088ZM346.258 196.128C345.458 196.128 344.69 196.011 343.954 195.776C343.228 195.531 342.647 195.205 342.21 194.8C342.05 194.651 341.97 194.464 341.97 194.24C341.97 194.091 342.012 193.963 342.098 193.856C342.183 193.739 342.284 193.68 342.402 193.68C342.54 193.68 342.69 193.739 342.85 193.856C343.842 194.624 344.972 195.008 346.242 195.008C347.159 195.008 347.863 194.832 348.354 194.48C348.844 194.128 349.09 193.627 349.09 192.976C349.09 192.603 348.972 192.304 348.738 192.08C348.503 191.845 348.194 191.659 347.81 191.52C347.426 191.381 346.908 191.237 346.258 191.088C345.383 190.885 344.663 190.672 344.098 190.448C343.543 190.224 343.09 189.904 342.738 189.488C342.396 189.072 342.226 188.528 342.226 187.856C342.226 187.216 342.396 186.651 342.738 186.16C343.09 185.659 343.575 185.275 344.194 185.008C344.823 184.731 345.538 184.592 346.338 184.592C347.084 184.592 347.778 184.709 348.418 184.944C349.068 185.168 349.612 185.493 350.05 185.92C350.22 186.091 350.306 186.277 350.306 186.48C350.306 186.629 350.263 186.763 350.178 186.88C350.092 186.987 349.991 187.04 349.874 187.04C349.756 187.04 349.602 186.981 349.41 186.864C348.887 186.437 348.402 186.139 347.954 185.968C347.506 185.797 346.967 185.712 346.338 185.712C345.452 185.712 344.764 185.899 344.274 186.272C343.783 186.635 343.538 187.147 343.538 187.808C343.538 188.373 343.751 188.8 344.178 189.088C344.615 189.365 345.282 189.611 346.178 189.824C347.148 190.059 347.911 190.277 348.466 190.48C349.02 190.672 349.479 190.965 349.842 191.36C350.215 191.755 350.402 192.283 350.402 192.944C350.402 193.573 350.226 194.128 349.874 194.608C349.532 195.088 349.047 195.461 348.418 195.728C347.788 195.995 347.068 196.128 346.258 196.128ZM355.557 196.112C354.831 196.112 354.186 195.947 353.621 195.616C353.066 195.285 352.634 194.816 352.325 194.208C352.026 193.6 351.877 192.896 351.877 192.096C351.877 191.296 352.031 190.587 352.341 189.968C352.661 189.349 353.103 188.869 353.669 188.528C354.234 188.187 354.885 188.016 355.621 188.016C356.026 188.016 356.426 188.075 356.821 188.192C357.226 188.299 357.578 188.459 357.877 188.672C358.069 188.8 358.202 188.928 358.277 189.056C358.362 189.173 358.405 189.307 358.405 189.456C358.405 189.605 358.362 189.728 358.277 189.824C358.202 189.92 358.101 189.968 357.973 189.968C357.898 189.968 357.818 189.947 357.733 189.904C357.647 189.861 357.573 189.819 357.509 189.776C357.455 189.733 357.418 189.707 357.397 189.696C357.119 189.515 356.853 189.371 356.597 189.264C356.351 189.157 356.047 189.104 355.685 189.104C354.906 189.104 354.298 189.371 353.861 189.904C353.434 190.427 353.221 191.157 353.221 192.096C353.221 193.035 353.434 193.76 353.861 194.272C354.298 194.784 354.906 195.04 355.685 195.04C356.047 195.04 356.357 194.987 356.613 194.88C356.879 194.773 357.146 194.629 357.413 194.448C357.53 194.373 357.642 194.309 357.749 194.256C357.855 194.203 357.946 194.176 358.021 194.176C358.138 194.176 358.234 194.224 358.309 194.32C358.394 194.416 358.437 194.539 358.437 194.688C358.437 194.827 358.399 194.955 358.325 195.072C358.25 195.179 358.111 195.301 357.909 195.44C357.61 195.643 357.247 195.808 356.821 195.936C356.405 196.053 355.983 196.112 355.557 196.112ZM363.853 188.048C364.301 188.016 364.525 188.197 364.525 188.592C364.525 188.763 364.477 188.901 364.381 189.008C364.285 189.104 364.12 189.163 363.885 189.184L363.405 189.232C362.69 189.296 362.157 189.552 361.805 190C361.464 190.437 361.293 190.955 361.293 191.552V195.44C361.293 195.653 361.234 195.813 361.117 195.92C361 196.027 360.845 196.08 360.653 196.08C360.461 196.08 360.301 196.027 360.173 195.92C360.056 195.803 359.997 195.643 359.997 195.44V188.688C359.997 188.485 360.061 188.331 360.189 188.224C360.317 188.107 360.472 188.048 360.653 188.048C360.824 188.048 360.968 188.107 361.085 188.224C361.202 188.331 361.261 188.48 361.261 188.672V189.568C361.485 189.099 361.8 188.741 362.205 188.496C362.621 188.251 363.096 188.107 363.629 188.064L363.853 188.048ZM366.294 196.08C366.102 196.08 365.942 196.027 365.814 195.92C365.696 195.803 365.638 195.643 365.638 195.44V188.688C365.638 188.485 365.696 188.331 365.814 188.224C365.942 188.107 366.102 188.048 366.294 188.048C366.486 188.048 366.64 188.107 366.758 188.224C366.875 188.331 366.934 188.485 366.934 188.688V195.44C366.934 195.653 366.875 195.813 366.758 195.92C366.64 196.027 366.486 196.08 366.294 196.08ZM366.294 186.368C366.038 186.368 365.83 186.293 365.67 186.144C365.51 185.995 365.43 185.797 365.43 185.552C365.43 185.317 365.51 185.125 365.67 184.976C365.83 184.827 366.038 184.752 366.294 184.752C366.55 184.752 366.758 184.827 366.918 184.976C367.078 185.125 367.158 185.317 367.158 185.552C367.158 185.797 367.078 185.995 366.918 186.144C366.758 186.293 366.55 186.368 366.294 186.368ZM373.276 188.016C373.959 188.016 374.562 188.187 375.084 188.528C375.607 188.869 376.012 189.349 376.3 189.968C376.588 190.576 376.732 191.285 376.732 192.096C376.732 192.907 376.588 193.616 376.3 194.224C376.012 194.821 375.607 195.285 375.084 195.616C374.572 195.947 373.97 196.112 373.276 196.112C372.668 196.112 372.135 195.979 371.676 195.712C371.228 195.445 370.887 195.067 370.652 194.576V198.336C370.652 198.528 370.594 198.677 370.476 198.784C370.37 198.901 370.215 198.96 370.012 198.96C369.81 198.96 369.65 198.901 369.532 198.784C369.415 198.667 369.356 198.517 369.356 198.336V188.688C369.356 188.496 369.415 188.341 369.532 188.224C369.65 188.107 369.81 188.048 370.012 188.048C370.215 188.048 370.37 188.107 370.476 188.224C370.594 188.341 370.652 188.496 370.652 188.688V189.552C370.887 189.061 371.228 188.683 371.676 188.416C372.135 188.149 372.668 188.016 373.276 188.016ZM373.02 195.04C373.778 195.04 374.364 194.784 374.78 194.272C375.196 193.76 375.404 193.035 375.404 192.096C375.404 191.157 375.196 190.427 374.78 189.904C374.364 189.371 373.778 189.104 373.02 189.104C372.263 189.104 371.676 189.36 371.26 189.872C370.855 190.384 370.652 191.115 370.652 192.064C370.652 193.013 370.855 193.749 371.26 194.272C371.676 194.784 372.263 195.04 373.02 195.04ZM382.253 195.056C382.626 195.088 382.813 195.259 382.813 195.568C382.813 195.749 382.744 195.888 382.605 195.984C382.477 196.069 382.28 196.101 382.013 196.08L381.581 196.048C380.728 195.984 380.098 195.728 379.693 195.28C379.288 194.832 379.085 194.155 379.085 193.248V189.232H378.013C377.832 189.232 377.688 189.189 377.581 189.104C377.485 189.008 377.437 188.885 377.437 188.736C377.437 188.576 377.485 188.448 377.581 188.352C377.688 188.256 377.832 188.208 378.013 188.208H379.085V186.4C379.085 186.197 379.144 186.043 379.261 185.936C379.378 185.819 379.538 185.76 379.741 185.76C379.933 185.76 380.088 185.819 380.205 185.936C380.322 186.043 380.381 186.197 380.381 186.4V188.208H382.157C382.328 188.208 382.461 188.256 382.557 188.352C382.664 188.448 382.717 188.576 382.717 188.736C382.717 188.885 382.664 189.008 382.557 189.104C382.461 189.189 382.328 189.232 382.157 189.232H380.381V193.312C380.381 193.899 380.498 194.325 380.733 194.592C380.978 194.848 381.341 194.992 381.821 195.024L382.253 195.056Z" fill="#192457"/>
<rect x="458" y="141" width="200" height="100" rx="2" fill="#F6F4FC"/>
<rect x="517" y="205" width="82" height="2" fill="#7C9DF3"/>
<path d="M534.048 196.08C533.845 196.08 533.685 196.021 533.568 195.904C533.451 195.776 533.392 195.611 533.392 195.408V185.36C533.392 185.168 533.451 185.013 533.568 184.896C533.696 184.779 533.861 184.72 534.064 184.72H537.856C539.04 184.72 539.957 185.008 540.608 185.584C541.269 186.16 541.6 186.976 541.6 188.032C541.6 189.088 541.269 189.909 540.608 190.496C539.947 191.083 539.029 191.376 537.856 191.376H534.704V195.408C534.704 195.611 534.645 195.776 534.528 195.904C534.411 196.021 534.251 196.08 534.048 196.08ZM537.728 190.288C539.445 190.288 540.304 189.536 540.304 188.032C540.304 186.549 539.445 185.808 537.728 185.808H534.704V190.288H537.728ZM549.144 188.448C549.261 188.192 549.448 188.064 549.704 188.064C549.864 188.064 550.008 188.117 550.136 188.224C550.264 188.331 550.328 188.464 550.328 188.624C550.328 188.72 550.307 188.805 550.264 188.88L545.768 198.576C545.715 198.693 545.635 198.784 545.528 198.848C545.432 198.912 545.331 198.944 545.224 198.944C545.064 198.944 544.92 198.891 544.792 198.784C544.675 198.688 544.616 198.56 544.616 198.4C544.616 198.315 544.637 198.229 544.68 198.144L545.8 195.728L542.632 188.88C542.589 188.805 542.568 188.725 542.568 188.64C542.568 188.48 542.637 188.341 542.776 188.224C542.925 188.107 543.085 188.048 543.256 188.048C543.363 188.048 543.464 188.08 543.56 188.144C543.667 188.208 543.747 188.299 543.8 188.416L546.472 194.416L549.144 188.448ZM555.519 195.056C555.892 195.088 556.079 195.259 556.079 195.568C556.079 195.749 556.009 195.888 555.871 195.984C555.743 196.069 555.545 196.101 555.279 196.08L554.847 196.048C553.993 195.984 553.364 195.728 552.959 195.28C552.553 194.832 552.351 194.155 552.351 193.248V189.232H551.279C551.097 189.232 550.953 189.189 550.847 189.104C550.751 189.008 550.703 188.885 550.703 188.736C550.703 188.576 550.751 188.448 550.847 188.352C550.953 188.256 551.097 188.208 551.279 188.208H552.351V186.4C552.351 186.197 552.409 186.043 552.527 185.936C552.644 185.819 552.804 185.76 553.007 185.76C553.199 185.76 553.353 185.819 553.471 185.936C553.588 186.043 553.647 186.197 553.647 186.4V188.208H555.423C555.593 188.208 555.727 188.256 555.823 188.352C555.929 188.448 555.983 188.576 555.983 188.736C555.983 188.885 555.929 189.008 555.823 189.104C555.727 189.189 555.593 189.232 555.423 189.232H553.647V193.312C553.647 193.899 553.764 194.325 553.999 194.592C554.244 194.848 554.607 194.992 555.087 195.024L555.519 195.056ZM561.292 188.016C562.21 188.016 562.903 188.277 563.372 188.8C563.842 189.312 564.076 190.08 564.076 191.104V195.44C564.076 195.643 564.018 195.803 563.9 195.92C563.783 196.027 563.628 196.08 563.436 196.08C563.234 196.08 563.074 196.027 562.956 195.92C562.839 195.803 562.78 195.643 562.78 195.44V191.136C562.78 190.443 562.636 189.931 562.348 189.6C562.071 189.269 561.623 189.104 561.004 189.104C560.29 189.104 559.719 189.323 559.292 189.76C558.866 190.197 558.652 190.789 558.652 191.536V195.44C558.652 195.643 558.594 195.803 558.476 195.92C558.37 196.027 558.215 196.08 558.012 196.08C557.81 196.08 557.65 196.027 557.532 195.92C557.415 195.803 557.356 195.643 557.356 195.44V185.264C557.356 185.083 557.415 184.933 557.532 184.816C557.66 184.699 557.82 184.64 558.012 184.64C558.215 184.64 558.37 184.699 558.476 184.816C558.594 184.923 558.652 185.072 558.652 185.264V189.456C558.908 188.987 559.266 188.629 559.724 188.384C560.183 188.139 560.706 188.016 561.292 188.016ZM569.682 196.112C568.946 196.112 568.295 195.947 567.73 195.616C567.175 195.285 566.743 194.816 566.434 194.208C566.135 193.589 565.986 192.875 565.986 192.064C565.986 191.253 566.135 190.544 566.434 189.936C566.743 189.317 567.175 188.843 567.73 188.512C568.295 188.181 568.946 188.016 569.682 188.016C570.418 188.016 571.069 188.181 571.634 188.512C572.199 188.843 572.631 189.317 572.93 189.936C573.239 190.544 573.394 191.253 573.394 192.064C573.394 192.875 573.239 193.589 572.93 194.208C572.631 194.816 572.199 195.285 571.634 195.616C571.069 195.947 570.418 196.112 569.682 196.112ZM569.682 195.04C570.45 195.04 571.037 194.789 571.442 194.288C571.858 193.776 572.066 193.035 572.066 192.064C572.066 191.115 571.858 190.384 571.442 189.872C571.026 189.349 570.439 189.088 569.682 189.088C568.925 189.088 568.338 189.349 567.922 189.872C567.506 190.384 567.298 191.115 567.298 192.064C567.298 193.024 567.501 193.76 567.906 194.272C568.322 194.784 568.914 195.04 569.682 195.04ZM579.245 188.016C581.112 188.016 582.045 189.045 582.045 191.104V195.44C582.045 195.643 581.986 195.803 581.869 195.92C581.762 196.027 581.608 196.08 581.405 196.08C581.202 196.08 581.042 196.027 580.925 195.92C580.808 195.803 580.749 195.643 580.749 195.44V191.184C580.749 190.459 580.605 189.931 580.317 189.6C580.04 189.269 579.592 189.104 578.973 189.104C578.258 189.104 577.688 189.323 577.261 189.76C576.834 190.197 576.621 190.789 576.621 191.536V195.44C576.621 195.643 576.562 195.803 576.445 195.92C576.338 196.027 576.184 196.08 575.981 196.08C575.778 196.08 575.618 196.027 575.501 195.92C575.384 195.803 575.325 195.643 575.325 195.44V188.688C575.325 188.496 575.384 188.341 575.501 188.224C575.618 188.107 575.778 188.048 575.981 188.048C576.173 188.048 576.322 188.107 576.429 188.224C576.546 188.341 576.605 188.491 576.605 188.672V189.488C576.861 189.008 577.218 188.645 577.677 188.4C578.136 188.144 578.658 188.016 579.245 188.016Z" fill="#192457"/>
<rect x="458" y="251" width="200" height="100" rx="2" fill="#F6F4FC"/>
<rect x="517" y="313" width="82" height="2" fill="#7CD6F3"/>
<path d="M544.048 306.08C543.845 306.08 543.685 306.021 543.568 305.904C543.451 305.776 543.392 305.611 543.392 305.408V295.36C543.392 295.168 543.451 295.013 543.568 294.896C543.696 294.779 543.861 294.72 544.064 294.72H547.856C549.04 294.72 549.957 295.008 550.608 295.584C551.269 296.16 551.6 296.976 551.6 298.032C551.6 299.088 551.269 299.909 550.608 300.496C549.947 301.083 549.029 301.376 547.856 301.376H544.704V305.408C544.704 305.611 544.645 305.776 544.528 305.904C544.411 306.021 544.251 306.08 544.048 306.08ZM547.728 300.288C549.445 300.288 550.304 299.536 550.304 298.032C550.304 296.549 549.445 295.808 547.728 295.808H544.704V300.288H547.728ZM562.409 294.64C562.611 294.64 562.766 294.704 562.873 294.832C562.99 294.949 563.049 295.109 563.049 295.312V305.408C563.049 305.611 562.99 305.776 562.873 305.904C562.766 306.021 562.611 306.08 562.409 306.08C562.206 306.08 562.046 306.021 561.929 305.904C561.811 305.776 561.753 305.611 561.753 305.408V300.832H555.001V305.408C555.001 305.611 554.942 305.776 554.825 305.904C554.707 306.021 554.547 306.08 554.345 306.08C554.142 306.08 553.982 306.021 553.865 305.904C553.758 305.776 553.705 305.611 553.705 305.408V295.312C553.705 295.109 553.758 294.949 553.865 294.832C553.982 294.704 554.142 294.64 554.345 294.64C554.547 294.64 554.707 294.704 554.825 294.832C554.942 294.949 555.001 295.109 555.001 295.312V299.712H561.753V295.312C561.753 295.109 561.811 294.949 561.929 294.832C562.046 294.704 562.206 294.64 562.409 294.64ZM566.486 306.08C566.283 306.08 566.123 306.021 566.006 305.904C565.888 305.776 565.83 305.611 565.83 305.408V295.36C565.83 295.168 565.888 295.013 566.006 294.896C566.134 294.779 566.299 294.72 566.502 294.72H570.294C571.478 294.72 572.395 295.008 573.046 295.584C573.707 296.16 574.038 296.976 574.038 298.032C574.038 299.088 573.707 299.909 573.046 300.496C572.384 301.083 571.467 301.376 570.294 301.376H567.142V305.408C567.142 305.611 567.083 305.776 566.966 305.904C566.848 306.021 566.688 306.08 566.486 306.08ZM570.166 300.288C571.883 300.288 572.742 299.536 572.742 298.032C572.742 296.549 571.883 295.808 570.166 295.808H567.142V300.288H570.166Z" fill="#192457"/>
<rect x="247" y="251" width="200" height="100" rx="2" fill="#F6F4FC"/>
<rect x="306" y="318" width="82" height="2" fill="#BF7CF3"/>
<path d="M343.176 306.128C342.109 306.128 341.187 305.899 340.408 305.44C339.629 304.971 339.027 304.304 338.6 303.44C338.184 302.565 337.976 301.536 337.976 300.352C337.976 299.179 338.184 298.16 338.6 297.296C339.027 296.421 339.629 295.755 340.408 295.296C341.187 294.827 342.109 294.592 343.176 294.592C343.891 294.592 344.563 294.709 345.192 294.944C345.832 295.168 346.387 295.493 346.856 295.92C347.027 296.08 347.112 296.267 347.112 296.48C347.112 296.629 347.069 296.763 346.984 296.88C346.899 296.987 346.797 297.04 346.68 297.04C346.552 297.04 346.397 296.981 346.216 296.864C345.672 296.437 345.176 296.139 344.728 295.968C344.291 295.797 343.784 295.712 343.208 295.712C341.971 295.712 341.016 296.117 340.344 296.928C339.683 297.728 339.352 298.869 339.352 300.352C339.352 301.845 339.683 302.997 340.344 303.808C341.016 304.608 341.971 305.008 343.208 305.008C343.773 305.008 344.28 304.923 344.728 304.752C345.176 304.581 345.672 304.283 346.216 303.856C346.397 303.739 346.552 303.68 346.68 303.68C346.797 303.68 346.899 303.733 346.984 303.84C347.069 303.947 347.112 304.08 347.112 304.24C347.112 304.453 347.027 304.64 346.856 304.8C346.387 305.227 345.832 305.557 345.192 305.792C344.563 306.016 343.891 306.128 343.176 306.128ZM355.316 298.448L354.596 302.144H356.164C356.303 302.144 356.42 302.192 356.516 302.288C356.623 302.384 356.676 302.501 356.676 302.64C356.676 302.768 356.628 302.875 356.532 302.96C356.436 303.045 356.313 303.088 356.164 303.088H354.42L353.908 305.696C353.887 305.813 353.828 305.909 353.732 305.984C353.647 306.048 353.545 306.08 353.428 306.08C353.257 306.08 353.119 306.021 353.012 305.904C352.916 305.776 352.889 305.621 352.932 305.44L353.396 303.088H350.836L350.324 305.696C350.313 305.803 350.26 305.893 350.164 305.968C350.079 306.043 349.977 306.08 349.86 306.08C349.721 306.08 349.604 306.032 349.508 305.936C349.412 305.84 349.364 305.723 349.364 305.584C349.364 305.52 349.369 305.472 349.38 305.44L349.844 303.088H348.772C348.623 303.088 348.5 303.04 348.404 302.944C348.308 302.848 348.26 302.731 348.26 302.592C348.26 302.464 348.308 302.357 348.404 302.272C348.5 302.187 348.623 302.144 348.772 302.144H350.02L350.74 298.448H349.092C348.953 298.448 348.831 298.4 348.724 298.304C348.628 298.208 348.58 298.091 348.58 297.952C348.58 297.824 348.628 297.717 348.724 297.632C348.82 297.547 348.943 297.504 349.092 297.504H350.916L351.412 294.976C351.433 294.859 351.487 294.768 351.572 294.704C351.668 294.629 351.775 294.592 351.892 294.592C352.041 294.592 352.159 294.64 352.244 294.736C352.34 294.821 352.388 294.939 352.388 295.088C352.388 295.152 352.383 295.2 352.372 295.232L351.924 297.504H354.484L354.98 294.976C354.991 294.869 355.044 294.779 355.14 294.704C355.236 294.629 355.343 294.592 355.46 294.592C355.609 294.592 355.727 294.64 355.812 294.736C355.908 294.821 355.956 294.939 355.956 295.088C355.956 295.152 355.951 295.2 355.94 295.232L355.492 297.504H356.484C356.633 297.504 356.756 297.552 356.852 297.648C356.948 297.744 356.996 297.861 356.996 298C356.996 298.128 356.948 298.235 356.852 298.32C356.756 298.405 356.633 298.448 356.484 298.448H355.316ZM353.572 302.144L354.308 298.448H351.748L351.012 302.144H353.572Z" fill="#192457"/>
<rect x="40" y="86" width="104" height="9" rx="4.5" fill="#F6F4FC"/>
<rect x="40" y="114" width="77.0076" height="9" rx="4.5" fill="#F6F4FC"/>
<rect x="40" y="142" width="93.6794" height="9" rx="4.5" fill="#F6F4FC"/>
<rect x="40" y="194" width="93.6794" height="9" rx="4.5" fill="#F6F4FC"/>
<rect x="40" y="168" width="73.0382" height="9" rx="4.5" fill="#F6F4FC"/>
<defs>
<filter id="filter0_d" x="0" y="0" width="561" height="359" filterUnits="userSpaceOnUse" color-interpolation-filters="sRGB">
<feFlood flood-opacity="0" result="BackgroundImageFix"/>
<feColorMatrix in="SourceAlpha" type="matrix" values="0 0 0 0 0 0 0 0 0 0 0 0 0 0 0 0 0 0 127 0"/>
<feOffset dx="10" dy="5"/>
<feGaussianBlur stdDeviation="5"/>
<feColorMatrix type="matrix" values="0 0 0 0 0.945098 0 0 0 0 0.933333 0 0 0 0 0.984314 0 0 0 1 0"/>
<feBlend mode="normal" in2="BackgroundImageFix" result="effect1_dropShadow"/>
<feBlend mode="normal" in="SourceGraphic" in2="effect1_dropShadow" result="shape"/>
</filter>
<filter id="filter1_d" x="171" y="47" width="573" height="371" filterUnits="userSpaceOnUse" color-interpolation-filters="sRGB">
<feFlood flood-opacity="0" result="BackgroundImageFix"/>
<feColorMatrix in="SourceAlpha" type="matrix" values="0 0 0 0 0 0 0 0 0 0 0 0 0 0 0 0 0 0 127 0"/>
<feMorphology radius="6" operator="dilate" in="SourceAlpha" result="effect1_dropShadow"/>
<feOffset dx="10" dy="5"/>
<feGaussianBlur stdDeviation="5"/>
<feColorMatrix type="matrix" values="0 0 0 0 0.946458 0 0 0 0 0.934167 0 0 0 0 0.983333 0 0 0 1 0"/>
<feBlend mode="normal" in2="BackgroundImageFix" result="effect1_dropShadow"/>
<feBlend mode="normal" in="SourceGraphic" in2="effect1_dropShadow" result="shape"/>
</filter>
</defs>
</svg>
